PathFileType	4	(X/Y/Z)	Run_500 03
DataRate	CameraRate	NumFrames	NumMarkers	Units	OrigDataRate	OrigDataStartFrame	OrigNumFrames
100	100	7	42	mm	100	149	128
Frame#	Time	RASI			LPSI			RPSI			RTH1			RTH2			RTH3			LTH1			LTH2			LTH3			RTB1			RTB2			RTB3			LTB1			LTB2			LTB3			RCAL			RTOE			RMT5			LCAL			LTOE			LMT5			LACR			RACR			CLAV			C7			RUA1			RUA2			RUA3			RLEL			RMEL			LUA1			LUA2			LUA3			LLEL			LMEL			RFAsuperior			RFAradius			RFAulna			LFAsuperior			LFAradius			LFAulna			LASI			
		X1	Y1	Z1	X2	Y2	Z2	X3	Y3	Z3	X4	Y4	Z4	X5	Y5	Z5	X6	Y6	Z6	X7	Y7	Z7	X8	Y8	Z8	X9	Y9	Z9	X10	Y10	Z10	X11	Y11	Z11	X12	Y12	Z12	X13	Y13	Z13	X14	Y14	Z14	X15	Y15	Z15	X16	Y16	Z16	X17	Y17	Z17	X18	Y18	Z18	X19	Y19	Z19	X20	Y20	Z20	X21	Y21	Z21	X22	Y22	Z22	X23	Y23	Z23	X24	Y24	Z24	X25	Y25	Z25	X26	Y26	Z26	X27	Y27	Z27	X28	Y28	Z28	X29	Y29	Z29	X30	Y30	Z30	X31	Y31	Z31	X32	Y32	Z32	X33	Y33	Z33	X34	Y34	Z34	X35	Y35	Z35	X36	Y36	Z36	X37	Y37	Z37	X38	Y38	Z38	X39	Y39	Z39	X40	Y40	Z40	X41	Y41	Z41	X42	Y42	Z42	

139	1.77	732.39472	984.5373090000001	-209.275925	567.609599	1082.367451	-392.435093	562.94446	1080.438481	-307.877564	637.813394	863.430264	-161.677186	666.700289	720.008101	-174.384969	572.018917	627.924143	-199.716042	725.766126	904.898774	-528.809438	847.801049	855.945949	-494.856042	864.8982130000001	708.515254	-495.114918	538.297712	380.284404	-266.691847	437.768349	322.100237	-229.284304	409.676266	226.864368	-295.087278	870.992856	538.8345890000001	-416.774459	775.496806	554.123124	-484.233927	675.95841	467.383221	-410.852544	224.669456	176.009071	-332.348963	417.164708	62.251953	-304.950973	372.485385	55.359495	-220.232587	488.684852	521.338948	-398.255	576.282524	304.903004	-407.029727	535.048284	323.232358	-486.818512	726.637326	1540.814481	-495.48903	731.754654	1505.566775	-154.674815	804.021542	1480.256699	-306.09082	663.152306	1553.537294	-339.515437	699.177821	1388.540687	-71.78645	634.7823509999999	1301.688868	-85.42868799999999	685.9491379999999	1271.881639	-37.630942	690.650988	1178.376373	-5.426258	660.885282	1149.229759	-76.33322099999999	652.496154	1478.972245	-599.341338	565.4685469999999	1431.930717	-597.668236	594.776381	1394.805697	-666.050329	558.727337	1322.158038	-713.355853	494.013575	1323.380718	-671.629218	761.197262	1135.917463	-9.698442999999999	946.121136	1106.873427	-94.716703	923.3379660000001	1047.666758	-60.808852	571.946591	1193.906501	-698.16921	603.761742	1069.262481	-604.3679959999999	554.027413	1059.546227	-648.324368	752.909203	999.62693	-463.638107	
140	1.78	736.169234	991.062133	-208.483154	571.186692	1090.39108	-390.644733	566.846255	1087.624071	-306.13741	637.043041	870.190115	-161.476498	655.22163	726.922492	-175.528198	552.964796	641.670239	-199.642632	733.58415	920.629552	-528.931098	854.1025990000001	872.827621	-492.436471	872.7511940000001	723.416306	-491.831928	508.567767	394.423158	-262.782741	406.432975	338.613981	-224.612979	380.858831	240.003999	-287.398026	892.8535429999999	547.00552	-416.172476	794.910311	552.147365	-481.243092	707.022964	451.255359	-409.5944	197.896119	199.478129	-328.140054	371.397707	62.400715	-303.115654	325.812806	56.544041	-219.849643	515.1885569999999	480.37442	-395.036637	631.095487	277.878897	-404.629828	586.687573	289.697326	-483.727217	721.945543	1550.913366	-497.213313	735.787877	1515.588882	-158.306408	803.315689	1490.23496	-311.672643	661.988569	1562.819499	-340.72707	705.927231	1399.141458	-73.976116	641.711278	1312.236495	-84.079911	695.534899	1282.15166	-39.40257	700.307148	1189.454906	-7.740563	668.85056	1159.701114	-78.389459	644.32066	1493.238226	-599.123202	557.21493	1448.576221	-595.897155	582.861075	1410.894854	-665.317985	542.734905	1339.620918	-711.627395	479.555916	1342.303893	-667.512392	772.441612	1150.623231	-14.622239	955.948974	1134.091855	-104.955119	937.515762	1072.533221	-72.002089	555.084302	1211.456727	-696.500509	589.686664	1087.190001	-603.045463	538.0972	1077.317221	-644.566729	755.75444	1004.371072	-462.61399	
141	1.79	739.931772	997.275368	-207.956817	575.027013	1098.336986	-388.732364	571.6399709999999	1094.807578	-304.435856	636.7734349999999	877.0872900000001	-160.232966	644.295451	735.074852	-176.137233	535.9358140000001	656.832675	-199.716349	739.833227	935.574038	-528.149909	859.151306	887.63698	-490.299972	878.428134	735.8448979999999	-489.635228	482.572764	410.323084	-258.739239	379.144169	356.636909	-219.815179	355.727096	254.715359	-279.294369	912.352678	552.842537	-416.315273	813.88321	547.704779	-479.576884	739.8870470000001	434.817442	-409.627705	176.667199	225.899755	-323.00541	330.499864	65.31551399999999	-299.78035	282.008785	61.378923	-219.565967	546.19798	439.340892	-392.69479	687.253059	253.618465	-402.902926	640.078226	258.128055	-480.856859	717.385206	1560.475409	-498.466349	739.365868	1525.255996	-162.275598	802.2825350000001	1499.69636	-316.860634	660.867338	1571.709763	-341.839936	712.201125	1409.861174	-76.122646	647.584173	1323.109756	-83.606123	703.9180249999999	1292.743711	-41.536839	708.762981	1200.938121	-9.356839000000001	675.154227	1170.193007	-79.281914	636.5613059999999	1507.020669	-598.467776	549.311932	1463.817412	-593.414182	571.26294	1426.330399	-663.869344	527.560618	1356.289489	-709.174516	466.255807	1359.757751	-662.358918	782.064924	1165.29122	-18.948842	963.018245	1159.610625	-114.84382	948.655128	1096.219696	-83.107091	539.922162	1228.274981	-694.590615	578.14607	1104.008044	-601.7624980000001	524.864727	1093.929169	-640.877178	758.424018	1008.152096	-461.922992	
142	1.8	743.4669	1003.274987	-207.75967	579.131729	1105.912709	-386.504917	576.649326	1102.037582	-302.151335	635.861985	884.668064	-158.365042	634.66215	743.906853	-175.832803	521.8823609999999	671.976861	-199.704207	743.592581	947.711044	-526.279845	862.531643	898.794175	-489.098556	882.530048	745.776943	-488.316265	460.317095	426.523353	-255.627752	355.793339	375.431191	-215.82139	331.915321	271.691677	-272.815597	929.781515	556.670829	-416.87501	832.498607	540.793202	-479.070891	773.966291	418.434122	-410.433404	157.147408	254.682922	-318.563115	293.778157	73.88511200000001	-294.472198	241.493766	73.265953	-218.529153	581.067516	398.821877	-391.042047	744.02682	232.158546	-402.084439	694.950329	229.203127	-478.746571	713.058698	1569.038678	-499.219072	742.138686	1534.225933	-166.494667	801.076018	1508.345118	-321.298716	659.785816	1579.742386	-342.880643	717.804296	1420.197851	-78.159829	652.206673	1333.902095	-83.993887	710.707782	1303.262897	-43.794926	716.061614	1212.114016	-10.417805	680.016578	1180.12606	-79.115014	629.373588	1519.601054	-597.420035	541.668185	1477.432195	-590.442496	560.2349400000001	1440.529312	-661.8039690000001	513.438338	1371.667866	-706.253055	454.294123	1375.354529	-656.75812	790.192214	1179.224422	-22.673424	967.867184	1182.509916	-124.104916	957.176565	1118.041863	-93.404726	526.657751	1243.869356	-692.638643	569.2312930000001	1119.422739	-600.952443	514.35959	1109.048241	-637.507987	760.9728710000001	1012.272386	-461.535269	
143	1.81	746.650404	1009.224175	-207.796935	583.071543	1113.016632	-384.076804	581.221888	1109.328899	-299.289328	634.059289	893.123081	-156.483043	627.387579	752.647431	-174.526753	511.766528	685.538624	-198.971282	744.784631	955.5544609999999	-523.892171	864.220722	905.665797	-489.015041	885.224466	753.043184	-487.412516	441.400826	441.680811	-253.75466	335.63326	394.314355	-213.097559	307.798442	291.045322	-269.123258	944.932708	558.7130969999999	-417.73634	850.156239	531.49748	-479.563891	807.918043	402.319974	-411.328694	135.871762	284.531375	-316.384927	259.358739	89.86724	-288.083658	204.204063	93.96614700000001	-216.039421	618.928446	358.815026	-389.660453	800.712974	213.508397	-402.130926	751.039003	203.66995	-477.871936	709.149773	1576.309481	-499.765237	743.990799	1542.249951	-170.662094	799.956641	1515.947713	-325.017093	658.726415	1586.587588	-343.983492	722.094973	1429.65385	-80.113375	655.822272	1343.724003	-84.727754	715.860079	1313.257	-45.530324	722.160805	1222.265403	-11.242658	683.847437	1189.08556	-78.427032	622.929257	1530.342701	-596.191634	534.3742109999999	1489.40015	-587.0429	550.072712	1452.990095	-659.127296	500.671579	1385.375469	-703.24316	443.853167	1388.714465	-651.172795	796.755349	1191.710831	-25.862644	970.944467	1202.212454	-132.485116	963.306568	1137.216461	-102.477969	515.4744020000001	1257.763366	-690.826116	562.895994	1133.194237	-600.813435	506.504576	1122.338692	-634.67439	763.277532	1016.812417	-461.344356	
144	1.82	749.44596	1015.097609	-207.921838	586.314149	1119.638923	-381.973985	585.032547	1116.541782	-296.660235	632.251053	901.819582	-155.119465	623.116363	760.541327	-172.660981	505.939864	696.480205	-197.06829	744.279781	958.954889	-522.081261	864.781584	909.046039	-489.601929	886.0803560000001	757.1887410000001	-486.458739	425.390819	455.131294	-252.286544	317.671056	413.200848	-211.409055	283.404553	312.254993	-267.642357	957.085422	558.809853	-419.070815	865.99562	519.769351	-481.031035	840.582158	386.49643	-412.019796	112.468869	315.108932	-316.659288	225.203473	112.630864	-282.445535	169.314938	122.161909	-212.46787	658.961192	319.267441	-388.173466	856.722493	197.694809	-402.9627	807.695174	181.827272	-478.321661	705.794168	1582.239703	-500.569987	744.9743130000001	1549.227315	-174.32241	799.122406	1522.420575	-328.283913	657.696422	1592.120114	-345.269715	724.5923749999999	1437.926826	-81.970054	658.670536	1351.817923	-85.44007000000001	719.474887	1322.210748	-46.386545	726.961141	1230.945942	-12.072508	687.049811	1196.851301	-77.85418	617.378685	1538.900738	-595.1455079999999	527.799142	1499.656718	-583.2593900000001	541.0920180000001	1463.371532	-655.927692	489.678262	1397.066471	-700.496761	435.147868	1399.495496	-645.980334	801.681402	1202.256167	-28.624167	972.529085	1218.229879	-139.981293	967.188853	1152.944652	-110.46336	506.577019	1269.527146	-689.335648	559.01405	1144.976262	-601.347071	501.091233	1133.439664	-632.486055	765.193389	1021.2337	-461.236602	
145	1.83	751.915929	1020.667831	-208.088146	588.632038	1125.606371	-380.756223	588.0522989999999	1123.359831	-295.166075	631.718626	909.690208	-154.463833	621.692122	767.148604	-170.969714	503.846594	704.688314	-194.219691	743.269514	959.121535	-521.630026	864.990638	910.265451	-490.146881	884.382839	757.78972	-485.338835	412.063841	466.938514	-249.926205	301.391361	432.547374	-210.098908	259.989506	334.644525	-266.640927	965.480693	556.642974	-421.005674	879.620354	505.65625	-483.358327	871.377081	370.954502	-412.706127	89.720727	347.487814	-318.221685	190.380384	139.876533	-278.870403	135.717959	154.57597	-209.067032	700.48717	280.801023	-386.673521	911.401086	184.840395	-404.326459	863.874629	163.283672	-479.511548	703.002695	1586.948711	-501.913446	745.1700980000001	1555.246812	-177.083905	798.586509	1527.851755	-331.30775	656.755858	1596.423312	-346.775474	725.428645	1444.858721	-83.691395	660.689262	1357.986117	-86.214648	721.6304249999999	1329.694983	-46.652352	730.348999	1238.119671	-12.962264	689.610605	1203.429962	-77.758351	612.818517	1545.259606	-594.6187660000001	522.434223	1507.841607	-579.362169	533.61653	1471.434463	-652.559329	480.929644	1406.319019	-698.190569	428.417384	1407.416416	-641.598821	805.016021	1210.728913	-31.094774	972.8137	1230.017114	-146.787704	969.083542	1164.697028	-117.53841	500.19855	1278.771968	-688.334111	557.462217	1154.329585	-602.480215	497.939448	1141.991251	-630.940328	766.73436	1025.119006	-461.185584	
